<svg width="32" height="32" viewBox="0 0 32 32" fill="none" xmlns="http://www.w3.org/2000/svg">
<g id="fire 1">
<path id="Vector" d="M24.9862 19.1675C24.7269 20.6159 24.0301 21.95 22.9896 22.9904C21.949 24.0307 20.6147 24.7272 19.1663 24.9862C19.1113 24.995 19.0557 24.9996 19 25C18.7492 24.9999 18.5075 24.9056 18.323 24.7357C18.1384 24.5658 18.0245 24.3327 18.0037 24.0828C17.9829 23.8328 18.0569 23.5841 18.2108 23.3861C18.3648 23.1881 18.5876 23.0552 18.835 23.0137C20.9062 22.665 22.6637 20.9075 23.015 18.8325C23.0594 18.5709 23.2059 18.3377 23.4223 18.1842C23.6387 18.0306 23.9072 17.9693 24.1688 18.0137C24.4303 18.0582 24.6635 18.2047 24.8171 18.421C24.9706 18.6374 25.0319 18.9059 24.9875 19.1675H24.9862ZM29 18C29 20.9174 27.8411 23.7153 25.7782 25.7782C23.7153 27.8411 20.9174 29 18 29C15.0826 29 12.2847 27.8411 10.2218 25.7782C8.15893 23.7153 7 20.9174 7 18C7 14.51 8.375 10.9412 11.0825 7.39373C11.1682 7.2814 11.2767 7.18851 11.4009 7.12117C11.5252 7.05384 11.6622 7.01359 11.8031 7.00308C11.944 6.99257 12.0856 7.01203 12.2184 7.06019C12.3512 7.10835 12.4723 7.18411 12.5737 7.28248L15.5887 10.2087L18.3388 2.65748C18.3937 2.50687 18.484 2.37168 18.6022 2.2633C18.7203 2.15493 18.8628 2.07654 19.0175 2.03475C19.1723 1.99296 19.3349 1.989 19.4915 2.0232C19.6481 2.05739 19.7942 2.12874 19.9175 2.23123C22.6512 4.49998 29 10.5687 29 18ZM27 18C27 12.2387 22.5262 7.25998 19.7237 4.70873L16.94 12.3425C16.8829 12.4993 16.7874 12.6393 16.6623 12.7497C16.5372 12.8602 16.3865 12.9376 16.2238 12.9748C16.0612 13.0121 15.8918 13.0081 15.7311 12.9631C15.5704 12.9182 15.4235 12.8337 15.3038 12.7175L12.0075 9.51998C10.0112 12.4012 9 15.25 9 18C9 20.3869 9.94821 22.6761 11.636 24.3639C13.3239 26.0518 15.6131 27 18 27C20.3869 27 22.6761 26.0518 24.364 24.3639C26.0518 22.6761 27 20.3869 27 18Z" fill="#0BC5EA"/>
</g>
</svg>
