<svg xmlns="http://www.w3.org/2000/svg" width="64" height="64" fill="none" viewBox="0 0 64 64"><g id="Bold Duotone / Essentional, UI / Confetti Minimalistic"><g id="Vector"><path fill="#0BC5EA" d="M29.1371 6.29389C30.0796 6.87002 30.3765 8.10104 29.8004 9.04346C29.3823 9.72733 29.4871 10.6086 30.0538 11.1753L30.3149 11.4363C31.8846 13.0061 32.4634 15.3122 31.8211 17.4372C31.5015 18.4945 30.3853 19.0925 29.328 18.7729C28.2706 18.4533 27.6726 17.3371 27.9922 16.2798C28.2079 15.5662 28.0135 14.7919 27.4864 14.2648L27.2254 14.0038C25.352 12.1304 25.0057 9.21756 26.3876 6.95711C26.9637 6.0147 28.1947 5.71776 29.1371 6.29389Z"/><path fill="#0BC5EA" d="M53.2659 18.7915C52.8968 18.9337 52.5696 19.2609 51.9153 19.9153C51.2609 20.5696 50.9337 20.8968 50.7915 21.2659C50.6251 21.6979 50.6251 22.1763 50.7915 22.6082C50.9337 22.9773 51.2609 23.3045 51.9153 23.9589C52.5696 24.6132 52.8968 24.9404 53.2659 25.0826C53.6979 25.2491 54.1763 25.2491 54.6082 25.0826C54.9773 24.9404 55.3045 24.6132 55.9589 23.9589C56.6132 23.3045 56.9404 22.9773 57.0826 22.6082C57.2491 22.1763 57.2491 21.6979 57.0826 21.2659C56.9404 20.8968 56.6132 20.5696 55.9589 19.9153C55.3045 19.2609 54.9773 18.9337 54.6082 18.7915C54.1763 18.6251 53.6979 18.6251 53.2659 18.7915Z"/><path fill="#0BC5EA" d="M57.0885 33.4923C56.1239 33.0706 55.0022 33.2477 54.2145 33.9462C52.0565 35.8598 48.9161 36.1778 46.4182 34.7357L45.8506 34.408C44.8941 33.8557 44.5663 32.6325 45.1186 31.6759C45.6709 30.7193 46.8941 30.3916 47.8507 30.9439L48.4182 31.2716C49.425 31.8528 50.6908 31.7247 51.5606 30.9534C53.5148 29.2205 56.2978 28.781 58.6909 29.8273L59.4682 30.1672C60.4803 30.6097 60.942 31.7888 60.4995 32.8009C60.057 33.813 58.8778 34.2747 57.8658 33.8322L57.0885 33.4923Z"/></g><path id="Vector_2" fill="#0BC5EA" d="M36.1628 11.7239C36.699 11.1877 36.967 10.9196 37.277 10.8214C37.5392 10.7383 37.8207 10.7383 38.0828 10.8214C38.3928 10.9196 38.6609 11.1877 39.197 11.7239C39.7332 12.26 40.0013 12.5281 40.0995 12.838C40.1826 13.1002 40.1826 13.3817 40.0995 13.6439C40.0013 13.9538 39.7332 14.2219 39.197 14.7581C38.6609 15.2942 38.3928 15.5623 38.0828 15.6606C37.8207 15.7437 37.5392 15.7437 37.277 15.6606C36.967 15.5623 36.699 15.2942 36.1628 14.7581C35.6267 14.2219 35.3586 13.9538 35.2603 13.6439C35.1772 13.3817 35.1772 13.1002 35.2603 12.838C35.3586 12.5281 35.6267 12.26 36.1628 11.7239Z" opacity=".7"/><path id="Vector_3" fill="#0BC5EA" d="M50.8201 40.8357C51.3786 40.2771 52.2843 40.2771 52.8429 40.8357C53.4015 41.3943 53.4015 42.2999 52.8429 42.8585C52.2843 43.4171 51.3786 43.4171 50.8201 42.8585C50.2615 42.2999 50.2615 41.3943 50.8201 40.8357Z" opacity=".7"/><g id="Vector_4" opacity=".5"><path fill="#0BC5EA" d="M18.4711 10.5088C19.0296 9.9502 19.9353 9.9502 20.4939 10.5088C21.0525 11.0674 21.0525 11.973 20.4939 12.5316C19.9353 13.0902 19.0296 13.0902 18.4711 12.5316C17.9125 11.973 17.9125 11.0674 18.4711 10.5088Z"/><path fill="#0BC5EA" d="M47.17 12.591C48.2531 12.8076 48.9555 13.8613 48.7389 14.9444L48.3549 16.8642C47.8265 19.5064 45.9228 21.6629 43.3666 22.5149C42.1721 22.9131 41.2826 23.9207 41.0357 25.1554L40.6517 27.0752C40.4351 28.1583 39.3814 28.8608 38.2983 28.6441C37.2152 28.4275 36.5127 27.3739 36.7294 26.2907L37.1133 24.3709C37.6418 21.7287 39.5454 19.5723 42.1017 18.7202C43.2961 18.3221 44.1857 17.3144 44.4326 16.0798L44.8166 14.1599C45.0332 13.0768 46.0868 12.3744 47.17 12.591Z"/></g><path id="Vector_5" fill="#0BC5EA" d="M46.6664 25.9775C47.225 25.4189 48.1306 25.4189 48.6892 25.9775C49.2478 26.5361 49.2478 27.4418 48.6892 28.0003C48.1306 28.5589 47.225 28.5589 46.6664 28.0003C46.1078 27.4418 46.1078 26.5361 46.6664 25.9775Z" opacity=".2"/><path id="Vector_6" fill="#0BC5EA" d="M10.6989 42.0315L15.2042 28.5155C17.2469 22.3874 18.2683 19.3234 20.685 18.7528C23.1016 18.1823 25.3855 20.4662 29.9531 25.0338L38.9637 34.0444L38.9637 34.0444C43.5314 38.6121 45.8152 40.8959 45.2447 43.3126C44.6742 45.7292 41.6101 46.7506 35.482 48.7933L21.966 53.2986L21.966 53.2986C14.5916 55.7568 10.9044 56.9858 8.95802 55.0395C7.01167 53.0931 8.24074 49.4059 10.6989 42.0315Z" opacity=".5"/><g id="Vector_7"><path fill="#0BC5EA" d="M23.4671 20.0114L23.6021 19.358C22.5538 18.7429 21.6295 18.5299 20.685 18.7528C20.2998 18.8438 19.9501 18.998 19.626 19.218L21.4832 19.6016C20.2071 19.338 19.7735 19.2483 19.626 19.218C19.595 19.239 19.5639 19.2609 19.5334 19.2831L19.5192 19.353C19.5 19.4488 19.4722 19.5887 19.4371 19.7688C19.3671 20.1287 19.2681 20.6493 19.1513 21.2977C18.9177 22.5938 18.6118 24.405 18.3223 26.4687C17.7486 30.5573 17.2172 35.7812 17.491 39.9557C17.6566 42.4817 18.1821 45.6152 18.6511 48.0636C18.8878 49.2994 19.1144 50.3823 19.282 51.1569C19.3658 51.5444 19.4349 51.8554 19.4834 52.0704L19.5397 52.3187L19.5549 52.3845L19.56 52.4067C19.5601 52.4069 19.5605 52.4089 21.5085 51.9556L19.56 52.4067L19.9253 53.9765C20.5721 53.7633 21.2518 53.5367 21.966 53.2986L23.737 52.7083L23.4523 51.4844L23.4387 51.4254L23.3856 51.1915C23.3394 50.9864 23.2727 50.6867 23.1916 50.3113C23.0291 49.5602 22.8092 48.509 22.5797 47.3111C22.1164 44.8923 21.631 41.9604 21.4824 39.694C21.2369 35.9505 21.7165 31.0654 22.2835 27.0245C22.5642 25.0235 22.8612 23.2648 23.0878 22.0072C23.2011 21.3788 23.2966 20.8765 23.3635 20.5329C23.3969 20.3611 23.4232 20.2291 23.4409 20.1408L23.4609 20.0417L23.4658 20.0178L23.4671 20.0114Z"/><path fill="#0BC5EA" d="M34.7716 49.0301L30.9768 50.295L30.7304 49.5537L32.6284 48.9229C30.7304 49.5537 30.7305 49.554 30.7304 49.5537L30.728 49.5463L30.7227 49.5301L30.7037 49.4721C30.6875 49.4223 30.6643 49.3505 30.6352 49.2587C30.5769 49.0751 30.4947 48.8112 30.3965 48.4831C30.2003 47.8278 29.9389 46.9112 29.6771 45.8627C29.1648 43.8116 28.6066 41.0854 28.6066 38.8139C28.6066 36.5424 29.1648 33.8163 29.6771 31.7651C29.9389 30.7167 30.2003 29.8001 30.3965 29.1448C30.4947 28.8166 30.5769 28.5528 30.6352 28.3692C30.6643 28.2774 30.6875 28.2056 30.7037 28.1557L30.7227 28.0977L30.728 28.0815L30.7296 28.0767C30.7297 28.0765 30.7304 28.0741 32.6284 28.7049L30.7304 28.0741L31.295 26.3757L34.46 29.5407C34.4561 29.553 34.452 29.5658 34.4478 29.5792C34.3955 29.744 34.3198 29.9868 34.2285 30.2919C34.0455 30.9029 33.8015 31.7587 33.5579 32.7343C33.0592 34.7311 32.6066 37.0594 32.6066 38.8139C32.6066 40.5684 33.0592 42.8968 33.5579 44.8936C33.8015 45.8691 34.0455 46.7249 34.2285 47.336C34.3198 47.641 34.3955 47.8839 34.4478 48.0487C34.4739 48.1311 34.4942 48.1939 34.5076 48.2351L34.5225 48.2805L34.5258 48.2907L34.7716 49.0301Z"/></g></g></svg>